<svg id="Solvent-Black_Logomark" data-name="Solvent-Black Logomark" xmlns="http://www.w3.org/2000/svg" width="131.029" height="84.007" viewBox="0 0 131.029 84.007">
  <g id="Group_27305" data-name="Group 27305" transform="translate(0 0)">
    <path id="Path_340" data-name="Path 340" d="M1014,650.046a41.455,41.455,0,0,0,17.914,34.106,41.985,41.985,0,0,0,.273-68.412A41.448,41.448,0,0,0,1014,650.046Z" transform="translate(-965.148 -607.847)"/>
    <path id="Path_341" data-name="Path 341" d="M996.232,648.092a47.212,47.212,0,0,1,18.629-37.577,42,42,0,1,0-.3,74.913,47.2,47.2,0,0,1-18.331-37.336Z" transform="translate(-953.71 -605.892)"/>
    <path id="Path_342" data-name="Path 342" d="M1055.5,689.571a41.256,41.256,0,1,1,41.247-41.25A41.257,41.257,0,0,1,1055.5,689.571Zm0-76.716A35.468,35.468,0,1,0,1091,648.331a35.468,35.468,0,0,0-35.492-35.476Z" transform="translate(-965.723 -606.124)"/>
  </g>
</svg>
