<svg width="14" height="14" viewBox="0 0 14 14" fill="none" xmlns="http://www.w3.org/2000/svg">
<path d="M12.9335 0.333496H1.06683C0.872337 0.333496 0.685811 0.410758 0.548285 0.548285C0.410758 0.685811 0.333496 0.872337 0.333496 1.06683V12.9335C0.333496 13.0298 0.352464 13.1252 0.389318 13.2141C0.426171 13.3031 0.480188 13.3839 0.548285 13.452C0.616381 13.5201 0.697223 13.5742 0.786195 13.611C0.875167 13.6479 0.970527 13.6668 1.06683 13.6668H7.4535V8.50016H5.72016V6.50016H7.4535V5.00016C7.41759 4.648 7.45917 4.29225 7.57531 3.95785C7.69145 3.62346 7.87934 3.31853 8.12581 3.06444C8.37227 2.81035 8.67135 2.61326 9.00205 2.48699C9.33275 2.36072 9.68707 2.30833 10.0402 2.3335C10.559 2.3303 11.0777 2.35701 11.5935 2.4135V4.2135H10.5335C9.6935 4.2135 9.5335 4.6135 9.5335 5.1935V6.48016H11.5335L11.2735 8.48016H9.5335V13.6668H12.9335C13.0298 13.6668 13.1252 13.6479 13.2141 13.611C13.3031 13.5742 13.3839 13.5201 13.452 13.452C13.5201 13.3839 13.5742 13.3031 13.611 13.2141C13.6479 13.1252 13.6668 13.0298 13.6668 12.9335V1.06683C13.6668 0.970527 13.6479 0.875167 13.611 0.786195C13.5742 0.697223 13.5201 0.616381 13.452 0.548285C13.3839 0.480188 13.3031 0.426171 13.2141 0.389318C13.1252 0.352464 13.0298 0.333496 12.9335 0.333496V0.333496Z" fill="white"/>
</svg>
