<svg xmlns="http://www.w3.org/2000/svg" width="14" height="14" fill="none" viewBox="0 0 14 14"><path fill="#fff" d="M7.00016 5.34683C6.67316 5.34683 6.35351 5.4438 6.08162 5.62547C5.80973 5.80714 5.59782 6.06535 5.47268 6.36746C5.34754 6.66957 5.3148 7.002 5.3786 7.32271C5.44239 7.64343 5.59986 7.93802 5.83108 8.16925C6.0623 8.40047 6.3569 8.55793 6.67761 8.62173C6.99833 8.68552 7.33076 8.65278 7.63287 8.52764C7.93497 8.40251 8.19319 8.1906 8.37486 7.91871C8.55653 7.64682 8.6535 7.32716 8.6535 7.00016C8.6535 6.78304 8.61073 6.56805 8.52764 6.36746C8.44456 6.16687 8.32277 5.98461 8.16925 5.83108C8.01572 5.67755 7.83346 5.55577 7.63287 5.47268C7.43227 5.38959 7.21728 5.34683 7.00016 5.34683V5.34683ZM13.6202 3.7135C13.6167 3.19867 13.5219 2.68854 13.3402 2.20683C13.2064 1.85434 12.9993 1.53423 12.7327 1.26762C12.4661 1.00101 12.146 0.793975 11.7935 0.660163C11.3118 0.478472 10.8017 0.38367 10.2868 0.380163C9.42683 0.333496 9.1735 0.333496 7.00016 0.333496C4.82683 0.333496 4.5735 0.333496 3.7135 0.380163C3.19867 0.38367 2.68854 0.478472 2.20683 0.660163C1.85434 0.793975 1.53423 1.00101 1.26762 1.26762C1.00101 1.53423 0.793975 1.85434 0.660163 2.20683C0.478472 2.68854 0.38367 3.19867 0.380163 3.7135C0.333496 4.5735 0.333496 4.82683 0.333496 7.00016C0.333496 9.1735 0.333496 9.42683 0.380163 10.2868C0.387339 10.8035 0.482012 11.3152 0.660163 11.8002C0.793381 12.151 1.00025 12.4693 1.26683 12.7335C1.53229 13.0017 1.85309 13.2087 2.20683 13.3402C2.68854 13.5219 3.19867 13.6167 3.7135 13.6202C4.5735 13.6668 4.82683 13.6668 7.00016 13.6668C9.1735 13.6668 9.42683 13.6668 10.2868 13.6202C10.8017 13.6167 11.3118 13.5219 11.7935 13.3402C12.1472 13.2087 12.468 13.0017 12.7335 12.7335C13.0001 12.4693 13.2069 12.151 13.3402 11.8002C13.5217 11.3161 13.6165 10.8038 13.6202 10.2868C13.6668 9.42683 13.6668 9.1735 13.6668 7.00016C13.6668 4.82683 13.6668 4.5735 13.6202 3.7135V3.7135ZM11.9268 9.04683C11.9054 9.45823 11.8176 9.86347 11.6668 10.2468C11.5374 10.5666 11.345 10.8571 11.1011 11.1011C10.8571 11.345 10.5666 11.5374 10.2468 11.6668C9.85984 11.8092 9.45234 11.888 9.04016 11.9002C8.5135 11.9002 8.3735 11.9002 7.00016 11.9002C5.62683 11.9002 5.48683 11.9002 4.96016 11.9002C4.54798 11.888 4.14049 11.8092 3.7535 11.6668C3.4229 11.544 3.12435 11.348 2.88016 11.0935C2.63861 10.8543 2.45206 10.5654 2.3335 10.2468C2.19053 9.86024 2.1139 9.45228 2.10683 9.04016C2.10683 8.5135 2.10683 8.3735 2.10683 7.00016C2.10683 5.62683 2.10683 5.48683 2.10683 4.96016C2.1139 4.54805 2.19053 4.14009 2.3335 3.7535C2.45635 3.4229 2.65235 3.12435 2.90683 2.88016C3.14705 2.63991 3.43567 2.45356 3.7535 2.3335C4.14049 2.1911 4.54798 2.1123 4.96016 2.10016V2.10016C5.48683 2.10016 5.62683 2.10016 7.00016 2.10016C8.3735 2.10016 8.5135 2.10016 9.04016 2.10016C9.45234 2.1123 9.85984 2.1911 10.2468 2.3335C10.5774 2.45635 10.876 2.65235 11.1202 2.90683C11.3617 3.146 11.5483 3.43492 11.6668 3.7535C11.8092 4.14049 11.888 4.54798 11.9002 4.96016C11.9002 5.48683 11.9002 5.62683 11.9002 7.00016C11.9002 8.3735 11.9468 8.5135 11.9268 9.04016V9.04683ZM10.8602 4.08683C10.7808 3.87149 10.6556 3.67592 10.4934 3.51364C10.3311 3.35135 10.1355 3.2262 9.92016 3.14683C9.62448 3.04434 9.31306 2.99469 9.00016 3.00016C8.48016 3.00016 8.3335 3.00016 7.00016 3.00016C5.66683 3.00016 5.52016 3.00016 5.00016 3.00016C4.68567 3.00324 4.37421 3.06192 4.08016 3.1735C3.86812 3.24927 3.67462 3.3693 3.51255 3.52563C3.35048 3.68196 3.22354 3.87099 3.14016 4.08016C3.04335 4.37707 2.99605 4.68789 3.00016 5.00016C3.00016 5.52016 3.00016 5.66683 3.00016 7.00016C3.00016 8.3335 3.00016 8.48016 3.00016 9.00016C3.00677 9.31429 3.06534 9.62516 3.1735 9.92016C3.25287 10.1355 3.37802 10.3311 3.54031 10.4934C3.70259 10.6556 3.89815 10.7808 4.1135 10.8602C4.39794 10.9648 4.69726 11.0233 5.00016 11.0335V11.0335C5.52016 11.0335 5.66683 11.0335 7.00016 11.0335C8.3335 11.0335 8.48016 11.0335 9.00016 11.0335C9.31465 11.0304 9.62612 10.9717 9.92016 10.8602C10.1355 10.7808 10.3311 10.6556 10.4934 10.4934C10.6556 10.3311 10.7808 10.1355 10.8602 9.92016C10.9717 9.62612 11.0304 9.31465 11.0335 9.00016C11.0335 8.48016 11.0335 8.3335 11.0335 7.00016C11.0335 5.66683 11.0335 5.52016 11.0335 5.00016C11.0337 4.68536 10.9749 4.37331 10.8602 4.08016V4.08683ZM7.00016 9.54683C6.66604 9.54683 6.33521 9.48091 6.0266 9.35285C5.718 9.22478 5.4377 9.03709 5.20175 8.80053C4.9658 8.56396 4.77885 8.28316 4.65159 7.97423C4.52434 7.66529 4.45929 7.33428 4.46016 7.00016V7.00016C4.46016 6.4962 4.60969 6.00356 4.88982 5.58462C5.16995 5.16568 5.56808 4.83927 6.03381 4.64672C6.49954 4.45416 7.01193 4.40412 7.50612 4.50293C8.0003 4.60173 8.45406 4.84494 8.80995 5.20177C9.16584 5.55859 9.40786 6.01299 9.50537 6.50743C9.60288 7.00188 9.5515 7.51413 9.35772 7.97936C9.16395 8.44458 8.8365 8.84186 8.41683 9.12088C7.99715 9.39991 7.50413 9.54815 7.00016 9.54683V9.54683ZM9.66683 4.9535C9.51946 4.9379 9.38307 4.86831 9.28395 4.75814C9.18483 4.64798 9.12999 4.50502 9.12999 4.35683C9.12999 4.20863 9.18483 4.06568 9.28395 3.95552C9.38307 3.84535 9.51946 3.77576 9.66683 3.76016V3.76016C9.8142 3.77576 9.95059 3.84535 10.0497 3.95552C10.1488 4.06568 10.2037 4.20863 10.2037 4.35683C10.2037 4.50502 10.1488 4.64798 10.0497 4.75814C9.95059 4.86831 9.8142 4.9379 9.66683 4.9535Z"/></svg>