<svg xmlns="http://www.w3.org/2000/svg" width="14" height="14" fill="none" viewBox="0 0 14 14"><path fill="#fff" d="M7.00016 0.333339C6.13308 0.301855 5.26859 0.44609 4.4587 0.757368C3.64881 1.06865 2.91025 1.54053 2.28746 2.14464C1.66467 2.74875 1.17051 3.4726 0.834715 4.27264C0.49892 5.07267 0.328429 5.93237 0.333496 6.80001C0.322322 7.70079 0.503242 8.59361 0.864199 9.41898C1.22516 10.2444 1.75786 10.9833 2.42683 11.5867C2.47994 11.634 2.52318 11.6913 2.55407 11.7554C2.58496 11.8195 2.60289 11.889 2.60683 11.96V13.1467C2.61048 13.2342 2.63535 13.3194 2.67929 13.3952C2.72324 13.4709 2.78493 13.5348 2.85907 13.5814C2.9332 13.628 3.01755 13.6558 3.10485 13.6625C3.19214 13.6693 3.27976 13.6547 3.36016 13.62L4.6935 13.04C4.80735 12.997 4.93298 12.997 5.04683 13.04C5.67712 13.2101 6.32731 13.2953 6.98016 13.2933C8.69877 13.296 10.348 12.6158 11.5651 11.4025C12.7823 10.1891 13.4675 8.54194 13.4702 6.82334C13.4728 5.10474 12.7926 3.45547 11.5793 2.23836C10.3659 1.02125 8.71877 0.335991 7.00016 0.333339V0.333339ZM11.0002 5.30667L9.04683 8.41334C8.97316 8.5303 8.87604 8.63072 8.7616 8.70826C8.64717 8.7858 8.5179 8.83877 8.38196 8.86383C8.24602 8.88888 8.10636 8.88549 7.9718 8.85385C7.83723 8.82221 7.71069 8.76302 7.60016 8.68001L6.04016 7.51334C5.97092 7.46141 5.88671 7.43334 5.80016 7.43334C5.71361 7.43334 5.6294 7.46141 5.56016 7.51334L3.4535 9.11334C3.39482 9.15859 3.32202 9.18158 3.248 9.17824C3.17398 9.17489 3.10355 9.14543 3.04919 9.09507C2.99484 9.04472 2.96009 8.97673 2.95112 8.90318C2.94214 8.82964 2.95952 8.75529 3.00016 8.69334L4.9535 5.58667C5.02717 5.46971 5.12428 5.36929 5.23872 5.29175C5.35316 5.21421 5.48243 5.16124 5.61837 5.13619C5.75431 5.11113 5.89397 5.11453 6.02853 5.14616C6.16309 5.1778 6.28963 5.237 6.40016 5.32001L7.96016 6.48667C8.0294 6.5386 8.11361 6.56667 8.20016 6.56667C8.28671 6.56667 8.37092 6.5386 8.44016 6.48667L10.5468 4.88667C10.6055 4.84142 10.6783 4.81843 10.7523 4.82178C10.8263 4.82512 10.8968 4.85459 10.9511 4.90494C11.0055 4.9553 11.0402 5.02328 11.0492 5.09683C11.0582 5.17037 11.0408 5.24472 11.0002 5.30667Z"/></svg>