<svg xmlns="http://www.w3.org/2000/svg" width="776.888" height="108.875" viewBox="0 0 776.888 108.875">
  <g id="Solvent-White_Full" data-name="Solvent-White Full" transform="translate(-221.995 -214.074)">
    <path id="Path_354" data-name="Path 354" d="M52.413-182.045q0,3.66,3.812,5.261T70.1-174.116q11.589,1.22,18.908,6.938t7.319,15.935v.915q0,11.284-8.234,17.994t-23.178,6.709a44.09,44.09,0,0,1-15.1-2.287,34.644,34.644,0,0,1-10.369-5.718,25.345,25.345,0,0,1-6.328-7.624,29.5,29.5,0,0,1-2.973-8.158l17.688-5.794a17.335,17.335,0,0,0,5.108,8.539q3.888,3.66,11.97,3.66,7.167,0,9.835-2.211a6.269,6.269,0,0,0,2.669-4.8,5.936,5.936,0,0,0-.686-2.821,6.826,6.826,0,0,0-2.516-2.44,17.1,17.1,0,0,0-4.956-1.906,57.255,57.255,0,0,0-7.853-1.22q-12.809-1.067-20.357-6.633T33.5-181.435v-.915a19.627,19.627,0,0,1,2.44-9.912,23.611,23.611,0,0,1,6.4-7.243A28.49,28.49,0,0,1,51.5-204a37.63,37.63,0,0,1,10.674-1.525A39.412,39.412,0,0,1,74.6-203.774a30.049,30.049,0,0,1,8.92,4.575,26.467,26.467,0,0,1,5.947,6.252,33.674,33.674,0,0,1,3.507,6.633L75.591-179.3a12.536,12.536,0,0,0-4.727-6.48,14.762,14.762,0,0,0-8.692-2.363q-4.88,0-7.319,1.754A5.2,5.2,0,0,0,52.413-182.045ZM195.75-164.661a40.943,40.943,0,0,1-3.2,16.7,35.553,35.553,0,0,1-8.692,12.2,38.109,38.109,0,0,1-12.58,7.548,42.957,42.957,0,0,1-14.867,2.592,42.956,42.956,0,0,1-14.867-2.592,38.109,38.109,0,0,1-12.58-7.548,35.553,35.553,0,0,1-8.692-12.2,40.943,40.943,0,0,1-3.2-16.7v-1.83a40.54,40.54,0,0,1,3.2-16.545,36.356,36.356,0,0,1,8.692-12.275,37.463,37.463,0,0,1,12.58-7.624,42.954,42.954,0,0,1,14.867-2.592,42.954,42.954,0,0,1,14.867,2.592,37.463,37.463,0,0,1,12.58,7.624,36.357,36.357,0,0,1,8.692,12.275,40.541,40.541,0,0,1,3.2,16.545Zm-39.341,20.738a21.967,21.967,0,0,0,7.777-1.372,18.863,18.863,0,0,0,6.4-3.965,18.723,18.723,0,0,0,4.346-6.328,21.294,21.294,0,0,0,1.6-8.463v-3.05a21.3,21.3,0,0,0-1.6-8.463,18.721,18.721,0,0,0-4.346-6.328,18.864,18.864,0,0,0-6.4-3.965,21.965,21.965,0,0,0-7.777-1.372,21.965,21.965,0,0,0-7.777,1.372,18.864,18.864,0,0,0-6.4,3.965,18.721,18.721,0,0,0-4.346,6.328,21.294,21.294,0,0,0-1.6,8.463v3.05a21.294,21.294,0,0,0,1.6,8.463,18.723,18.723,0,0,0,4.346,6.328,18.863,18.863,0,0,0,6.4,3.965A21.967,21.967,0,0,0,156.408-143.923Zm58.1-2.135h26.533V-216.2H215.421v-18.3h44.831v88.442h24.7v18.3H214.506Zm88.442-57.335h20.738l17.841,66.484h2.745l17.841-66.484H382.85L361.2-127.76H324.6Zm115.584,44.069a14.827,14.827,0,0,0,1.6,6.176,15.259,15.259,0,0,0,3.965,4.88,18.876,18.876,0,0,0,5.795,3.2,20.91,20.91,0,0,0,6.938,1.144q7.167,0,10.979-2.516a15.041,15.041,0,0,0,5.49-6.023l16.469,9.149a32.6,32.6,0,0,1-3.812,6.023,26.727,26.727,0,0,1-6.328,5.718,35.385,35.385,0,0,1-9.454,4.27,45.37,45.37,0,0,1-13.038,1.677,42.349,42.349,0,0,1-15.554-2.745,34.388,34.388,0,0,1-12.123-7.929,35.749,35.749,0,0,1-7.929-12.656,47.662,47.662,0,0,1-2.821-16.926v-.915a41,41,0,0,1,2.973-15.859,35.967,35.967,0,0,1,8.158-12.2,37.48,37.48,0,0,1,12.122-7.853,39.091,39.091,0,0,1,14.868-2.821A37.836,37.836,0,0,1,453.6-202.1a36.172,36.172,0,0,1,11.589,8.692,34.209,34.209,0,0,1,6.709,11.589,38.31,38.31,0,0,1,2.135,12.275v10.217Zm18.146-28.82q-7.32,0-11.894,3.736a17.062,17.062,0,0,0-5.947,8.616h35.682a13.545,13.545,0,0,0-5.718-8.844Q444-188.144,436.678-188.144Zm77.463,60.384H494.928v-75.633h19.213v11.284h2.745a20.068,20.068,0,0,1,8.387-9.912,25.7,25.7,0,0,1,13.571-3.507,29.783,29.783,0,0,1,10.293,1.754,22.989,22.989,0,0,1,8.463,5.413,25.078,25.078,0,0,1,5.718,9.3,39.2,39.2,0,0,1,2.058,13.419v47.881H546.163v-43q0-8.082-3.889-12.733t-11.208-4.651q-8.539,0-12.733,5.718T514.141-167.1Zm71.974-75.633H608.53V-234.5h19.213v31.107h27.3v18.3h-27.3v34.462q0,4.575,4.117,4.575h20.433v18.3H620.271a11.314,11.314,0,0,1-8.463-3.355,11.712,11.712,0,0,1-3.278-8.539v-45.441H586.114Z" transform="translate(343.845 448.574)" fill="#fff"/>
    <g id="Group_27313" data-name="Group 27313" transform="translate(221.995 238.941)">
      <g id="Group_27305" data-name="Group 27305" transform="translate(0 0)">
        <path id="Path_340" data-name="Path 340" d="M1014,650.046a41.455,41.455,0,0,0,17.914,34.106,41.985,41.985,0,0,0,.273-68.412A41.448,41.448,0,0,0,1014,650.046Z" transform="translate(-965.148 -607.847)" fill="#fff"/>
        <path id="Path_341" data-name="Path 341" d="M996.232,648.092a47.212,47.212,0,0,1,18.629-37.577,42,42,0,1,0-.3,74.913,47.2,47.2,0,0,1-18.331-37.336Z" transform="translate(-953.71 -605.892)" fill="#fff"/>
        <path id="Path_342" data-name="Path 342" d="M1055.5,689.571a41.256,41.256,0,1,1,41.247-41.25A41.257,41.257,0,0,1,1055.5,689.571Zm0-76.716A35.468,35.468,0,1,0,1091,648.331a35.468,35.468,0,0,0-35.492-35.476Z" transform="translate(-965.723 -606.124)" fill="#fff"/>
      </g>
    </g>
  </g>
</svg>
