<svg width="14" height="12" viewBox="0 0 14 12" fill="none" xmlns="http://www.w3.org/2000/svg">
<path d="M13.6668 1.86681C13.1657 2.0842 12.6358 2.22792 12.0935 2.29347C12.6656 1.95169 13.0943 1.41399 13.3002 0.78014C12.7625 1.10018 12.174 1.32567 11.5602 1.44681C11.1499 1.00185 10.6035 0.705671 10.0067 0.604707C9.40993 0.503744 8.79653 0.603712 8.26269 0.888933C7.72885 1.17415 7.30478 1.62849 7.05699 2.1807C6.8092 2.7329 6.75169 3.35173 6.8935 3.94014C5.80645 3.88516 4.74312 3.60211 3.7726 3.10938C2.80207 2.61665 1.94606 1.92527 1.26016 1.08014C1.01959 1.50025 0.893176 1.97602 0.893496 2.46014C0.892643 2.90973 1.00297 3.35255 1.21467 3.74918C1.42636 4.14581 1.73284 4.48395 2.10683 4.73347C1.67215 4.72165 1.24675 4.60501 0.866829 4.39347V4.42681C0.870087 5.05673 1.09083 5.6662 1.49171 6.15212C1.89259 6.63803 2.449 6.97057 3.06683 7.09347C2.829 7.16585 2.58208 7.20401 2.3335 7.20681C2.16142 7.2048 1.98978 7.18919 1.82016 7.16014C1.9961 7.70201 2.33658 8.17557 2.79421 8.51491C3.25185 8.85426 3.80388 9.04251 4.3735 9.05347C3.41163 9.81032 2.22409 10.2234 1.00016 10.2268C0.77732 10.2275 0.554653 10.2142 0.333496 10.1868C1.58312 10.9936 3.03937 11.422 4.52683 11.4201C5.55329 11.4308 6.57159 11.2368 7.52224 10.8495C8.47289 10.4622 9.33684 9.8894 10.0636 9.16447C10.7904 8.43955 11.3655 7.57707 11.7552 6.62741C12.1449 5.67775 12.3415 4.65996 12.3335 3.63347C12.3335 3.52014 12.3335 3.40014 12.3335 3.28014C12.8566 2.89001 13.3078 2.41176 13.6668 1.86681V1.86681Z" fill="white"/>
</svg>
